<?xml version="1.0" encoding="UTF-8"?>
<svg id="Layer_2" data-name="Layer 2" xmlns="http://www.w3.org/2000/svg" viewBox="0 0 280.04 280.04">
  <defs>
    <style>
      .cls-1 {
        fill: #e74334;
      }

      .cls-2 {
        fill: #4286f3;
      }

      .cls-3 {
        fill: #35a651;
      }

      .cls-4 {
        fill: #f9ba07;
      }
    </style>
  </defs>
  <g id="Layer_1-2" data-name="Layer 1">
    <path class="cls-4" d="M68.47,140.02c0-13.54,3.73-26.21,10.21-37.04L29.06,54.63C10.84,78.26,0,107.87,0,140.02s10.3,60.27,27.69,83.6l52.73-43.81c-7.54-11.41-11.94-25.08-11.94-39.78Z"/>
    <path class="cls-1" d="M140.74,67.75c19.48,0,37.15,7.72,50.15,20.26l51.87-43.1C217.19,17.29,180.62,0,140.02,0,94.84,0,54.66,21.41,29.06,54.63l49.63,48.35c12.62-21.1,35.68-35.23,62.06-35.23Z"/>
    <path class="cls-3" d="M179.38,201.08c-11.18,7.09-24.42,11.21-38.63,11.21-25.21,0-47.39-12.92-60.33-32.48l-52.73,43.81c25.53,34.24,66.34,56.42,112.33,56.42,33.46,0,64.17-11.74,88.25-31.32l-48.9-47.64Z"/>
    <path class="cls-2" d="M277.01,110.98h-138.09v60.82h66.72c-5.9,12.01-15.04,22.15-26.27,29.28l48.9,47.64c31.58-25.67,51.77-64.83,51.77-108.7,0-9.96-1.05-19.67-3.03-29.04Z"/>
  </g>
</svg>